<?xml version="1.0" encoding="UTF-8"?>
<svg id="Camada_1" data-name="Camada 1" xmlns="http://www.w3.org/2000/svg" version="1.1" viewBox="0 0 275.66 290.7">
  <defs>
    <style>
      .cls-1 {
        fill: #fff;
        stroke: #000;
        stroke-miterlimit: 10;
      }
    </style>
  </defs>
  <path class="cls-1" d="M242.56,156.87c-.58-.5-1.15-1-1.69-1.49-9.45-8.47-18.41-18.03-26.94-27.39-9.21-10.12-16.92-21.46-23.44-33.49-1.66-3.06-3.46-5.86-5.42-8.44-14.57-5.53-31.13-8.89-48.75-9.44-4.75.87-9.5,1.62-14.39,2.18-.53.06-1.06.13-1.59.19-.87.97-5.02,2.47-6.55,2.61-5.62.51-8.94,2.3-14.81,1.53-5.4-.7-19.71,1.51-24.68,2.83-2.69.72-6.1.99-9.02,2.02-.48.38-.96.73-1.47,1.03-6.95,6.49-12.17,17.16-20.48,21.44-11.32,5.83-6.42,14.88-15.03,25.11-3.7,4.39-6.6,9.56-8.51,15.05-.04.84-.07,1.68-.07,2.52,0,9.28,2.41,18.17,6.81,26.4.81.46,1.6.94,2.39,1.44,6.94-.86,13.71,1.18,20.02,5.74,4.38,3.17,8.28,6.91,12.24,10.57,4.51,4.17,8.53,6.47,14.23,8.23,2.76-.03,5.52.04,8.25.25,16.07,1.2,31.9,4.77,48.02,5.29,10.43.34,20.89.28,31.35.18.49-.15.98-.29,1.47-.45,7.29-2.38,13.9-6.46,21.19-8.86,8-2.63,12.35-1.64,20.54-3.37,5.74-.91,8.78-5.78,11.29-8.18,7.68-7.37,15.9-14.2,23-22.15,3.11-4.28,1.76-7.48,2.03-11.35Z"/>
</svg>