<?xml version="1.0" encoding="UTF-8"?>
<svg id="Camada_1" data-name="Camada 1" xmlns="http://www.w3.org/2000/svg" version="1.1" viewBox="0 0 275.66 290.7">
  <defs>
    <style>
      .cls-1 {
        fill: #fff;
        stroke: #000;
        stroke-miterlimit: 10;
      }

      .cls-2 {
        fill: none;
        stroke-width: 0px;
      }
    </style>
  </defs>
  <path class="cls-2" d="M131.99,223.73c-.09,2.45-.39,4.91-.78,7.25-.76,4.59-2.16,9.08-4.32,13.2-.46.88-.96,1.74-1.49,2.58-1.08,1.73-2.3,3.39-3.81,4.75-2.94,2.68-7.74,4.38-11.45,2.22-2.68-1.56-4.66-4.79-5.69-7.58-1.98-5.38-1.55-11.61-.76-17.23.52-3.65,1.55-7.21,2.92-10.63,1.26-3.13,2.77-6.31,5.17-8.75,2.67-2.71,6.62-4.26,10.43-3.73,4.2.58,7.02,3.66,8.46,7.5.36.95.63,1.93.82,2.92.47,2.43.59,4.97.5,7.5Z"/>
  <path class="cls-1" d="M216.85,130.11c-12.53,6.31-25.03,12.67-37.51,19.08-11.94,6.13-23.64,12.8-35.84,18.42.34-.92.7-1.82,1.08-2.73,5.25-12.6,11.63-24.7,17.45-37.04,5.98-12.69,11.91-25.4,17.78-38.14,5.59-12.09,11.12-24.22,16.61-36.36-12.23,20.85-24.53,41.67-36.87,62.45-8.58,14.44-17.11,28.93-25.92,43.23-3.11,5.04-6.36,10.03-9.6,15.03-3.09.65-6.22,1.16-9.37,1.54-11.93,1.43-23.96-.3-35.89,1.18-9.98,1.24-21.34,5.41-27.63,13.69-5.18,6.8-6,17.07.96,22.94,5.5,4.62,13.72,5.84,20.66,5.05,3.1-.36,6.31-.81,9.32-1.64,7.94-2.18,15.38-5.35,22.53-9.12-2.87,6.29-5.24,12.81-6.87,19.65-.73,3.04-1.07,6.26-1.32,9.37-.56,6.96.94,15.14,5.75,20.47,6.1,6.77,16.33,5.6,22.96.19,8.05-6.57,11.84-18.07,12.74-28.08,1.07-11.97-1.06-23.94-.04-35.91.22-2.57.53-5.12.94-7.66,3.45-2.41,6.9-4.79,10.37-7.1,14-9.29,28.19-18.3,42.33-27.37,20.35-13.04,40.74-26.03,61.16-38.97-11.95,5.9-23.87,11.84-35.78,17.83ZM99.4,202.17c-2.36,2.49-5.49,4.1-8.57,5.47-3.38,1.48-6.9,2.63-10.53,3.28-5.59.98-11.8,1.62-17.24-.18-2.83-.93-6.12-2.8-7.77-5.43-2.29-3.63-.75-8.49,1.83-11.52,1.3-1.55,2.92-2.83,4.61-3.96.83-.56,1.67-1.09,2.53-1.58,4.05-2.3,8.49-3.85,13.05-4.77,2.32-.47,4.77-.85,7.22-1.02,2.52-.18,5.07-.14,7.51.24,1,.16,1.98.4,2.95.72,3.88,1.31,7.06,4.03,7.78,8.2.66,3.79-.76,7.79-3.37,10.55ZM131.99,223.73c-.09,2.45-.39,4.91-.78,7.25-.76,4.59-2.16,9.08-4.32,13.2-.46.88-.96,1.74-1.49,2.58-1.08,1.73-2.3,3.39-3.81,4.75-2.94,2.68-7.74,4.38-11.45,2.22-2.68-1.56-4.66-4.79-5.69-7.58-1.98-5.38-1.55-11.61-.76-17.23.52-3.65,1.55-7.21,2.92-10.63,1.26-3.13,2.77-6.31,5.17-8.75,2.67-2.71,6.62-4.26,10.43-3.73,4.2.58,7.02,3.66,8.46,7.5.36.95.63,1.93.82,2.92.47,2.43.59,4.97.5,7.5Z"/>
  <path class="cls-1" d="M136.77,219.21"/>
</svg>